<svg width="50" height="50" viewBox="0 0 50 50" fill="none" xmlns="http://www.w3.org/2000/svg">
<path d="M14.1271 42.8975C14.1271 46.6707 10.9647 49.7295 7.06356 49.7295C3.16246 49.7295 0 46.6707 0 42.8975C0 39.1244 3.16246 36.0656 7.06356 36.0656C10.9647 36.0656 14.1271 39.1244 14.1271 42.8975Z" fill="#616161"/>
<path d="M31.9237 24.8648C31.9237 28.6379 28.7613 31.6967 24.8602 31.6967C20.9591 31.6967 17.7966 28.6379 17.7966 24.8648C17.7966 21.0916 20.9591 18.0328 24.8602 18.0328C28.7613 18.0328 31.9237 21.0916 31.9237 24.8648Z" fill="#616161"/>
<path d="M49.7203 6.83197C49.7203 10.6052 46.5579 13.6639 42.6568 13.6639C38.7557 13.6639 35.5932 10.6052 35.5932 6.83197C35.5932 3.05878 38.7557 0 42.6568 0C46.5579 0 49.7203 3.05878 49.7203 6.83197Z" fill="#616161"/>
<rect width="14.4068" height="32.7869" rx="5" fill="#5DD6FF"/>
<rect x="35.5932" y="17.2131" width="14.4068" height="32.7869" rx="5" fill="#5DD6FF"/>
<rect x="17.7966" width="14.1271" height="13.6639" rx="5" fill="#5DD6FF"/>
<rect x="17.7966" y="36.0656" width="14.1271" height="13.6639" rx="5" fill="#5DD6FF"/>
</svg>
